<?xml version="1.0" standalone="no"?>
<!DOCTYPE svg PUBLIC "-//W3C//DTD SVG 20010904//EN"
 "http://www.w3.org/TR/2001/REC-SVG-20010904/DTD/svg10.dtd">
<svg version="1.0" xmlns="http://www.w3.org/2000/svg"
 width="65.000000pt" height="65.000000pt" viewBox="0 0 65.000000 65.000000"
 preserveAspectRatio="xMidYMid meet">

<g transform="translate(0.000000,65.000000) scale(0.100000,-0.100000)"
fill="#000000" stroke="none">
<path d="M210 620 c-11 -7 -16 -34 -20 -97 -4 -78 -7 -88 -24 -88 -11 0 -21
-6 -23 -12 -3 -8 5 -13 21 -13 24 0 26 -4 26 -40 0 -36 -2 -40 -25 -40 -14 0
-25 -4 -25 -10 0 -5 11 -10 25 -10 22 0 25 -4 25 -35 0 -32 -2 -35 -29 -35
-42 0 -48 -18 -9 -22 l33 -3 5 -93 c4 -67 9 -95 20 -102 8 -5 92 -10 186 -10
153 0 173 2 187 18 15 16 17 52 17 294 0 254 -1 276 -18 291 -16 14 -44 17
-188 17 -93 0 -176 -5 -184 -10z m362 -45 c3 -13 3 -27 0 -30 -3 -3 -86 -5
-184 -5 l-178 0 0 23 c0 13 3 27 7 30 3 4 84 7 179 7 l172 0 4 -25z m3 -255
l0 -195 -182 -3 -183 -2 0 50 0 50 38 0 c33 0 39 -4 49 -31 10 -25 16 -30 40
-27 19 2 29 10 33 28 9 36 33 36 47 0 10 -26 16 -31 40 -28 19 2 29 9 31 23 2
11 7 29 12 40 17 36 41 147 36 161 -4 11 -34 14 -136 14 -106 0 -130 3 -130
14 0 9 -12 16 -27 18 -25 3 -28 7 -31 46 l-3 42 183 -2 183 -3 0 -195z m-331
78 c18 -58 17 -68 -9 -68 -23 0 -25 4 -25 40 0 29 4 40 15 40 9 0 17 -6 19
-12z m157 -46 c-57 -1 -108 1 -112 5 -5 4 42 6 104 3 l112 -5 -104 -3z m93
-46 c-3 -15 -8 -25 -11 -23 -2 3 -1 17 3 31 3 15 8 25 11 23 2 -3 1 -17 -3
-31z m-96 -49 l87 -3 -92 -2 c-51 -1 -93 2 -93 7 0 5 -2 24 -5 42 -5 34 -5 34
6 -3 l11 -37 86 -4z m-134 37 c14 -37 7 -54 -24 -54 -28 0 -30 3 -30 35 0 30
3 35 24 35 13 0 27 -7 30 -16z m81 -104 c-5 -8 -11 -8 -17 -2 -6 6 -7 16 -3
22 5 8 11 8 17 2 6 -6 7 -16 3 -22z m120 0 c-5 -8 -11 -8 -17 -2 -6 6 -7 16
-3 22 5 8 11 8 17 2 6 -6 7 -16 3 -22z m56 -100 c55 0 56 -1 51 -25 l-4 -25
-177 2 c-173 3 -176 3 -179 25 -3 21 1 22 75 26 43 2 101 2 128 1 28 -2 75 -4
106 -4z"/>
<path d="M300 575 c0 -9 5 -15 11 -13 6 2 11 8 11 13 0 5 -5 11 -11 13 -6 2
-11 -4 -11 -13z"/>
<path d="M357 584 c-16 -17 -4 -24 39 -24 32 0 44 4 42 13 -5 13 -69 22 -81
11z"/>
<path d="M466 582 c-3 -6 -1 -14 5 -17 15 -10 25 3 12 16 -7 7 -13 7 -17 1z"/>
<path d="M355 70 c-7 -12 39 -24 60 -16 8 3 15 10 15 16 0 13 -67 13 -75 0z"/>
<path d="M52 434 c-21 -9 -3 -24 29 -24 20 0 29 4 27 13 -5 13 -35 19 -56 11z"/>
<path d="M90 320 c0 -5 5 -10 10 -10 6 0 10 5 10 10 0 6 -4 10 -10 10 -5 0
-10 -4 -10 -10z"/>
</g>
</svg>
